<svg width="65" height="65" viewBox="0 0 65 65" fill="none" xmlns="http://www.w3.org/2000/svg">
<g clip-path="url(#clip0_178_377)">
<path d="M61.46 18.78H58.4V12.68H55.36V9.64H52.3V6.6H46.22V3.54H40.12V0.5H24.88V3.54H18.78V6.6H12.68V9.64H9.64V12.68H6.6V18.78H3.54V24.88H0.5V40.12H3.54V46.22H6.6V52.3H9.64V55.36H12.68V58.4H18.78V61.46H24.88V64.5H40.12V61.46H46.22V58.4H52.3V55.36H55.36V52.3H58.4V46.22H61.46V40.12H64.5V24.88H61.46V18.78ZM40.12 52.3H37.08V55.36H27.92V52.3H24.88V43.16H27.92V40.12H37.08V43.16H40.12V52.3ZM49.26 24.88H46.22V27.92H43.16V30.98H40.12V34.02H37.08V37.08H27.92V30.98H30.98V27.92H34.02V24.88H37.08V18.78H34.02V15.74H27.92V18.78H24.88V24.88H15.74V15.74H18.78V12.68H21.84V9.64H24.88V6.6H40.12V9.64H43.16V12.68H46.22V15.74H49.26V24.88Z" fill="#8E613C"/>
</g>
<defs>
<clipPath id="clip0_178_377">
<rect width="64" height="64" fill="white" transform="translate(0.5 0.5)"/>
</clipPath>
</defs>
</svg>
