<svg width="63" height="53" viewBox="0 0 63 53" fill="none" xmlns="http://www.w3.org/2000/svg">
<path d="M43.8906 24.9562V28.0437H37.6953V31.1516H19.1297V34.2391H28.4125V37.3266H31.5V40.4344H34.6078V43.5219H46.9781V46.6094H50.0859V49.7172H53.1735V52.8047H56.2609V40.4344H59.3688V37.3266H62.4563V24.9562H59.3688V21.8484H56.2609V18.7609H50.0859V9.47812H46.9781V24.9562H43.8906Z" fill="#8E613C"/>
<path d="M43.8906 6.37032H46.9781V9.47813H43.8906V6.37032Z" fill="#8E613C"/>
<path d="M34.6078 15.6734H40.7828V21.8484H34.6078V15.6734Z" fill="#8E613C"/>
<path d="M37.6953 3.28281H43.8906V6.37031H37.6953V3.28281Z" fill="#8E613C"/>
<path d="M22.2172 15.6734H28.4125V21.8484H22.2172V15.6734Z" fill="#8E613C"/>
<path d="M16.0219 34.2391H19.1297V37.3266H16.0219V34.2391Z" fill="#8E613C"/>
<path d="M12.9344 0.195312H37.6953V3.28281H12.9344V0.195312Z" fill="#8E613C"/>
<path d="M12.9344 31.1516H9.84689V43.5219H12.9344V40.4344H16.0219V37.3265H12.9344V31.1516Z" fill="#8E613C"/>
<path d="M9.84689 15.6734H16.0219V21.8484H9.84689V15.6734Z" fill="#8E613C"/>
<path d="M6.73907 3.28281H12.9344V6.37031H6.73907V3.28281Z" fill="#8E613C"/>
<path d="M6.73907 28.0437H9.84689V31.1516H6.73907V28.0437Z" fill="#8E613C"/>
<path d="M3.65158 24.9563H6.73908V28.0438H3.65158V24.9563Z" fill="#8E613C"/>
<path d="M3.65158 6.37032H6.73908V9.47813H3.65158V6.37032Z" fill="#8E613C"/>
<path d="M0.543762 9.47812H3.65157V24.9562H0.543762V9.47812Z" fill="#8E613C"/>
</svg>
