<svg xmlns="http://www.w3.org/2000/svg" xmlns:xlink="http://www.w3.org/1999/xlink" width="1080" zoomAndPan="magnify" viewBox="0 0 810 809.999993" height="1080" preserveAspectRatio="xMidYMid meet" version="1.0"><defs><clipPath id="fca455aa6e"><path d="M 269.714844 218.902344 L 337.386719 218.902344 L 337.386719 286.574219 L 269.714844 286.574219 Z M 269.714844 218.902344 " clip-rule="nonzero"/></clipPath><clipPath id="56a082ebc0"><path d="M 303.550781 252.738281 L 371.222656 252.738281 L 371.222656 320.410156 L 303.550781 320.410156 Z M 303.550781 252.738281 " clip-rule="nonzero"/></clipPath><clipPath id="af02ed56be"><path d="M 303.550781 286.574219 L 371.222656 286.574219 L 371.222656 354.246094 L 303.550781 354.246094 Z M 303.550781 286.574219 " clip-rule="nonzero"/></clipPath><clipPath id="9f94a09b29"><path d="M 472.613281 218.902344 L 540.285156 218.902344 L 540.285156 286.574219 L 472.613281 286.574219 Z M 472.613281 218.902344 " clip-rule="nonzero"/></clipPath><clipPath id="d31e2818a1"><path d="M 438.777344 252.738281 L 506.449219 252.738281 L 506.449219 320.410156 L 438.777344 320.410156 Z M 438.777344 252.738281 " clip-rule="nonzero"/></clipPath><clipPath id="53304d797d"><path d="M 438.777344 286.574219 L 506.449219 286.574219 L 506.449219 354.246094 L 438.777344 354.246094 Z M 438.777344 286.574219 " clip-rule="nonzero"/></clipPath><clipPath id="abd48378b7"><path d="M 337.386719 320.410156 L 405.058594 320.410156 L 405.058594 388.082031 L 337.386719 388.082031 Z M 337.386719 320.410156 " clip-rule="nonzero"/></clipPath><clipPath id="751c4b10fb"><path d="M 404.828125 320.410156 L 472.5 320.410156 L 472.5 388.082031 L 404.828125 388.082031 Z M 404.828125 320.410156 " clip-rule="nonzero"/></clipPath><clipPath id="7c90db1680"><path d="M 371.222656 370.996094 L 438.894531 370.996094 L 438.894531 438.667969 L 371.222656 438.667969 Z M 371.222656 370.996094 " clip-rule="nonzero"/></clipPath><clipPath id="ab12775c47"><path d="M 337.386719 421.917969 L 405.058594 421.917969 L 405.058594 489.589844 L 337.386719 489.589844 Z M 337.386719 421.917969 " clip-rule="nonzero"/></clipPath><clipPath id="85a88a35a4"><path d="M 404.828125 421.917969 L 472.5 421.917969 L 472.5 489.589844 L 404.828125 489.589844 Z M 404.828125 421.917969 " clip-rule="nonzero"/></clipPath><clipPath id="f4f5f7c1e6"><path d="M 303.550781 455.753906 L 371.222656 455.753906 L 371.222656 523.425781 L 303.550781 523.425781 Z M 303.550781 455.753906 " clip-rule="nonzero"/></clipPath><clipPath id="bc14fe1532"><path d="M 438.664062 455.753906 L 506.335938 455.753906 L 506.335938 523.425781 L 438.664062 523.425781 Z M 438.664062 455.753906 " clip-rule="nonzero"/></clipPath><clipPath id="2edeeeefdb"><path d="M 303.550781 489.589844 L 371.222656 489.589844 L 371.222656 557.261719 L 303.550781 557.261719 Z M 303.550781 489.589844 " clip-rule="nonzero"/></clipPath><clipPath id="2c59ca5d9d"><path d="M 269.714844 523.425781 L 337.386719 523.425781 L 337.386719 591.097656 L 269.714844 591.097656 Z M 269.714844 523.425781 " clip-rule="nonzero"/></clipPath><clipPath id="115b87645f"><path d="M 438.664062 489.589844 L 506.335938 489.589844 L 506.335938 557.261719 L 438.664062 557.261719 Z M 438.664062 489.589844 " clip-rule="nonzero"/></clipPath><clipPath id="2aa610337c"><path d="M 472.5 523.425781 L 540.171875 523.425781 L 540.171875 591.097656 L 472.5 591.097656 Z M 472.5 523.425781 " clip-rule="nonzero"/></clipPath></defs><g clip-path="url(#fca455aa6e)"><path fill="#8e613c" d="M 269.714844 218.902344 L 337.386719 218.902344 L 337.386719 286.574219 L 269.714844 286.574219 Z M 269.714844 218.902344 " fill-opacity="1" fill-rule="nonzero"/></g><g clip-path="url(#56a082ebc0)"><path fill="#8e613c" d="M 303.550781 252.738281 L 371.222656 252.738281 L 371.222656 320.410156 L 303.550781 320.410156 Z M 303.550781 252.738281 " fill-opacity="1" fill-rule="nonzero"/></g><g clip-path="url(#af02ed56be)"><path fill="#8e613c" d="M 303.550781 286.574219 L 371.222656 286.574219 L 371.222656 354.246094 L 303.550781 354.246094 Z M 303.550781 286.574219 " fill-opacity="1" fill-rule="nonzero"/></g><g clip-path="url(#9f94a09b29)"><path fill="#8e613c" d="M 472.613281 218.902344 L 540.285156 218.902344 L 540.285156 286.574219 L 472.613281 286.574219 Z M 472.613281 218.902344 " fill-opacity="1" fill-rule="nonzero"/></g><g clip-path="url(#d31e2818a1)"><path fill="#8e613c" d="M 438.777344 252.738281 L 506.449219 252.738281 L 506.449219 320.410156 L 438.777344 320.410156 Z M 438.777344 252.738281 " fill-opacity="1" fill-rule="nonzero"/></g><g clip-path="url(#53304d797d)"><path fill="#8e613c" d="M 438.777344 286.574219 L 506.449219 286.574219 L 506.449219 354.246094 L 438.777344 354.246094 Z M 438.777344 286.574219 " fill-opacity="1" fill-rule="nonzero"/></g><g clip-path="url(#abd48378b7)"><path fill="#8e613c" d="M 337.386719 320.410156 L 405.058594 320.410156 L 405.058594 388.082031 L 337.386719 388.082031 Z M 337.386719 320.410156 " fill-opacity="1" fill-rule="nonzero"/></g><g clip-path="url(#751c4b10fb)"><path fill="#8e613c" d="M 404.828125 320.410156 L 472.5 320.410156 L 472.5 388.082031 L 404.828125 388.082031 Z M 404.828125 320.410156 " fill-opacity="1" fill-rule="nonzero"/></g><g clip-path="url(#7c90db1680)"><path fill="#8e613c" d="M 371.222656 370.996094 L 438.894531 370.996094 L 438.894531 438.667969 L 371.222656 438.667969 Z M 371.222656 370.996094 " fill-opacity="1" fill-rule="nonzero"/></g><g clip-path="url(#ab12775c47)"><path fill="#8e613c" d="M 337.386719 421.917969 L 405.058594 421.917969 L 405.058594 489.589844 L 337.386719 489.589844 Z M 337.386719 421.917969 " fill-opacity="1" fill-rule="nonzero"/></g><g clip-path="url(#85a88a35a4)"><path fill="#8e613c" d="M 404.828125 421.917969 L 472.5 421.917969 L 472.5 489.589844 L 404.828125 489.589844 Z M 404.828125 421.917969 " fill-opacity="1" fill-rule="nonzero"/></g><g clip-path="url(#f4f5f7c1e6)"><path fill="#8e613c" d="M 303.550781 455.753906 L 371.222656 455.753906 L 371.222656 523.425781 L 303.550781 523.425781 Z M 303.550781 455.753906 " fill-opacity="1" fill-rule="nonzero"/></g><g clip-path="url(#bc14fe1532)"><path fill="#8e613c" d="M 438.664062 455.753906 L 506.335938 455.753906 L 506.335938 523.425781 L 438.664062 523.425781 Z M 438.664062 455.753906 " fill-opacity="1" fill-rule="nonzero"/></g><g clip-path="url(#2edeeeefdb)"><path fill="#8e613c" d="M 303.550781 489.589844 L 371.222656 489.589844 L 371.222656 557.261719 L 303.550781 557.261719 Z M 303.550781 489.589844 " fill-opacity="1" fill-rule="nonzero"/></g><g clip-path="url(#2c59ca5d9d)"><path fill="#8e613c" d="M 269.714844 523.425781 L 337.386719 523.425781 L 337.386719 591.097656 L 269.714844 591.097656 Z M 269.714844 523.425781 " fill-opacity="1" fill-rule="nonzero"/></g><g clip-path="url(#115b87645f)"><path fill="#8e613c" d="M 438.664062 489.589844 L 506.335938 489.589844 L 506.335938 557.261719 L 438.664062 557.261719 Z M 438.664062 489.589844 " fill-opacity="1" fill-rule="nonzero"/></g><g clip-path="url(#2aa610337c)"><path fill="#8e613c" d="M 472.5 523.425781 L 540.171875 523.425781 L 540.171875 591.097656 L 472.5 591.097656 Z M 472.5 523.425781 " fill-opacity="1" fill-rule="nonzero"/></g></svg>