<svg width="59" height="65" viewBox="0 0 59 65" fill="none" xmlns="http://www.w3.org/2000/svg">
<path d="M58.9023 24.7609H55.8148V30.9563H52.707V27.8688H49.6195V24.7609H55.8148V21.6734H49.6195V18.5656H46.532V30.9563H43.4242V34.0438H15.5758V30.9563H12.468V18.5656H9.39062V21.6734H3.18516V24.7609H9.39062V27.8688H6.29297V30.9563H3.18516V24.7609H0.0976562V34.0438H3.18516V37.1516H9.39062V58.8047H12.4781V61.9125H15.5859V65H43.4344V61.9125H46.5422V58.8047H49.6297V37.1516H55.825V34.0438H58.9125L58.9023 24.7609ZM46.532 43.3469H12.468V40.2391H46.532V43.3469Z" fill="#8E613C"/>
<path d="M43.4242 15.4781H46.532V18.5656H43.4242V15.4781Z" fill="#8E613C"/>
<path d="M43.4242 3.10782H46.532V9.28282H43.4242V3.10782Z" fill="#8E613C"/>
<path d="M40.3367 9.28281H43.4242V15.4781H40.3367V9.28281Z" fill="#8E613C"/>
<path d="M37.2289 0H43.4242V3.10781H37.2289V0Z" fill="#8E613C"/>
<path d="M37.2289 21.6734H40.3367V24.7609H37.2289V21.6734Z" fill="#8E613C"/>
<path d="M34.1414 3.10782H37.2289V9.28282H34.1414V3.10782Z" fill="#8E613C"/>
<path d="M31.0539 9.28281H34.1414V12.3906H31.0539V9.28281Z" fill="#8E613C"/>
<path d="M27.9461 30.9563H31.0539V27.8688H34.1414V24.7609H24.8586V27.8688H27.9461V30.9563Z" fill="#8E613C"/>
<path d="M27.9461 12.3906H31.0539V15.4781H27.9461V12.3906Z" fill="#8E613C"/>
<path d="M24.8586 9.28281H27.9461V12.3906H24.8586V9.28281Z" fill="#8E613C"/>
<path d="M21.7508 3.10782H24.8586V9.28282H21.7508V3.10782Z" fill="#8E613C"/>
<path d="M18.6633 21.6734H21.7508V24.7609H18.6633V21.6734Z" fill="#8E613C"/>
<path d="M15.5758 0H21.7508V3.10781H15.5758V0Z" fill="#8E613C"/>
<path d="M15.5758 9.28281H18.6633V15.4781H15.5758V9.28281Z" fill="#8E613C"/>
<path d="M12.468 15.4781H15.5758V18.5656H12.468V15.4781Z" fill="#8E613C"/>
<path d="M12.468 3.10782H15.5758V9.28282H12.468V3.10782Z" fill="#8E613C"/>
</svg>
