<svg xmlns="http://www.w3.org/2000/svg" xmlns:xlink="http://www.w3.org/1999/xlink" width="1080" zoomAndPan="magnify" viewBox="0 0 810 809.999993" height="1080" preserveAspectRatio="xMidYMid meet" version="1.0"><defs><clipPath id="fb0c3dd7e6"><path d="M 213.375 240.335938 L 311.824219 240.335938 L 311.824219 308.8125 L 213.375 308.8125 Z M 213.375 240.335938 " clip-rule="nonzero"/></clipPath><clipPath id="28b224b259"><path d="M 306.921875 240.335938 L 405.371094 240.335938 L 405.371094 308.8125 L 306.921875 308.8125 Z M 306.921875 240.335938 " clip-rule="nonzero"/></clipPath><clipPath id="621562dc6e"><path d="M 486.648438 240.335938 L 595.882812 240.335938 L 595.882812 308.8125 L 486.648438 308.8125 Z M 486.648438 240.335938 " clip-rule="nonzero"/></clipPath><clipPath id="5bc821db57"><path d="M 398.984375 240.335938 L 497.433594 240.335938 L 497.433594 308.8125 L 398.984375 308.8125 Z M 398.984375 240.335938 " clip-rule="nonzero"/></clipPath><clipPath id="b27ea1bf9d"><path d="M 213.375 370.683594 L 311.824219 370.683594 L 311.824219 439.15625 L 213.375 439.15625 Z M 213.375 370.683594 " clip-rule="nonzero"/></clipPath><clipPath id="808f85b32c"><path d="M 306.921875 370.683594 L 405.371094 370.683594 L 405.371094 439.15625 L 306.921875 439.15625 Z M 306.921875 370.683594 " clip-rule="nonzero"/></clipPath><clipPath id="ed374f3362"><path d="M 485.90625 370.683594 L 595.882812 370.683594 L 595.882812 439.15625 L 485.90625 439.15625 Z M 485.90625 370.683594 " clip-rule="nonzero"/></clipPath><clipPath id="aca7a25aa5"><path d="M 398.984375 370.683594 L 497.433594 370.683594 L 497.433594 439.15625 L 398.984375 439.15625 Z M 398.984375 370.683594 " clip-rule="nonzero"/></clipPath><clipPath id="611fabc92e"><path d="M 214.117188 501.1875 L 312.566406 501.1875 L 312.566406 569.664062 L 214.117188 569.664062 Z M 214.117188 501.1875 " clip-rule="nonzero"/></clipPath><clipPath id="ec2561956f"><path d="M 307.660156 501.1875 L 406.109375 501.1875 L 406.109375 569.664062 L 307.660156 569.664062 Z M 307.660156 501.1875 " clip-rule="nonzero"/></clipPath><clipPath id="6efbe47280"><path d="M 485.90625 501.1875 L 596.625 501.1875 L 596.625 569.664062 L 485.90625 569.664062 Z M 485.90625 501.1875 " clip-rule="nonzero"/></clipPath><clipPath id="b11bb54fbd"><path d="M 399.722656 501.1875 L 498.175781 501.1875 L 498.175781 569.664062 L 399.722656 569.664062 Z M 399.722656 501.1875 " clip-rule="nonzero"/></clipPath></defs><g clip-path="url(#fb0c3dd7e6)"><path fill="#8e613c" d="M 213.375 240.335938 L 311.804688 240.335938 L 311.804688 308.8125 L 213.375 308.8125 Z M 213.375 240.335938 " fill-opacity="1" fill-rule="nonzero"/></g><g clip-path="url(#28b224b259)"><path fill="#8e613c" d="M 306.921875 240.335938 L 405.351562 240.335938 L 405.351562 308.8125 L 306.921875 308.8125 Z M 306.921875 240.335938 " fill-opacity="1" fill-rule="nonzero"/></g><g clip-path="url(#621562dc6e)"><path fill="#8e613c" d="M 486.648438 240.335938 L 595.777344 240.335938 L 595.777344 308.8125 L 486.648438 308.8125 Z M 486.648438 240.335938 " fill-opacity="1" fill-rule="nonzero"/></g><g clip-path="url(#5bc821db57)"><path fill="#8e613c" d="M 398.984375 240.335938 L 497.414062 240.335938 L 497.414062 308.8125 L 398.984375 308.8125 Z M 398.984375 240.335938 " fill-opacity="1" fill-rule="nonzero"/></g><g clip-path="url(#b27ea1bf9d)"><path fill="#8e613c" d="M 213.375 370.683594 L 311.804688 370.683594 L 311.804688 439.15625 L 213.375 439.15625 Z M 213.375 370.683594 " fill-opacity="1" fill-rule="nonzero"/></g><g clip-path="url(#808f85b32c)"><path fill="#8e613c" d="M 306.921875 370.683594 L 405.351562 370.683594 L 405.351562 439.15625 L 306.921875 439.15625 Z M 306.921875 370.683594 " fill-opacity="1" fill-rule="nonzero"/></g><g clip-path="url(#ed374f3362)"><path fill="#8e613c" d="M 485.90625 370.683594 L 595.835938 370.683594 L 595.835938 439.15625 L 485.90625 439.15625 Z M 485.90625 370.683594 " fill-opacity="1" fill-rule="nonzero"/></g><g clip-path="url(#aca7a25aa5)"><path fill="#8e613c" d="M 398.984375 370.683594 L 497.414062 370.683594 L 497.414062 439.15625 L 398.984375 439.15625 Z M 398.984375 370.683594 " fill-opacity="1" fill-rule="nonzero"/></g><g clip-path="url(#611fabc92e)"><path fill="#8e613c" d="M 214.117188 501.1875 L 312.546875 501.1875 L 312.546875 569.664062 L 214.117188 569.664062 Z M 214.117188 501.1875 " fill-opacity="1" fill-rule="nonzero"/></g><g clip-path="url(#ec2561956f)"><path fill="#8e613c" d="M 307.660156 501.1875 L 406.089844 501.1875 L 406.089844 569.664062 L 307.660156 569.664062 Z M 307.660156 501.1875 " fill-opacity="1" fill-rule="nonzero"/></g><g clip-path="url(#6efbe47280)"><path fill="#8e613c" d="M 485.90625 501.1875 L 596.640625 501.1875 L 596.640625 569.664062 L 485.90625 569.664062 Z M 485.90625 501.1875 " fill-opacity="1" fill-rule="nonzero"/></g><g clip-path="url(#b11bb54fbd)"><path fill="#8e613c" d="M 399.722656 501.1875 L 498.152344 501.1875 L 498.152344 569.664062 L 399.722656 569.664062 Z M 399.722656 501.1875 " fill-opacity="1" fill-rule="nonzero"/></g></svg>